<?xml version="1.0" standalone="no"?><!DOCTYPE svg PUBLIC "-//W3C//DTD SVG 1.1//EN" "http://www.w3.org/Graphics/SVG/1.1/DTD/svg11.dtd"><svg t="1587293471870" class="icon" viewBox="0 0 1024 1024" version="1.1" xmlns="http://www.w3.org/2000/svg" p-id="1167" xmlns:xlink="http://www.w3.org/1999/xlink" width="200" height="200"><defs><style type="text/css"></style></defs><path d="M384 213.333333h42.666667v298.666667h-42.666667zM597.333333 213.333333h42.666667v298.666667h-42.666667zM490.666667 213.333333h42.666666v298.666667h-42.666666z" fill="#FF4081" p-id="1168"></path><path d="M384 170.666667c0-11.797333 21.333333-42.666667 21.333333-42.666667s21.333333 30.869333 21.333334 42.666667a21.333333 21.333333 0 1 1-42.666667 0zM490.666667 170.666667c0-11.797333 21.333333-42.666667 21.333333-42.666667s21.333333 30.869333 21.333333 42.666667a21.333333 21.333333 0 1 1-42.666666 0zM597.333333 170.666667c0-11.797333 21.333333-42.666667 21.333334-42.666667s21.333333 30.869333 21.333333 42.666667a21.333333 21.333333 0 1 1-42.666667 0z" fill="#FF9800" p-id="1169"></path><path d="M725.333333 661.333333v-192a64 64 0 0 0-64-64H362.666667a64 64 0 0 0-64 64v192h426.666666z" fill="#9C27B0" p-id="1170"></path><path d="M661.333333 405.333333H362.666667a64 64 0 0 0-64 64s48.448 68.010667 106.666666 0c0 0 48.448 64.448 106.666667 0 0 0 48.896 64.448 106.666667 0 0 0 49.344 65.344 106.666666 0a64 64 0 0 0-64-64z" fill="#6A1B9A" p-id="1171"></path><path d="M341.333333 618.666667m-42.666666 0a42.666667 42.666667 0 1 0 85.333333 0 42.666667 42.666667 0 1 0-85.333333 0Z" fill="#FFEB3B" p-id="1172"></path><path d="M426.666667 618.666667m-42.666667 0a42.666667 42.666667 0 1 0 85.333333 0 42.666667 42.666667 0 1 0-85.333333 0Z" fill="#FFEB3B" p-id="1173"></path><path d="M512 618.666667m-42.666667 0a42.666667 42.666667 0 1 0 85.333334 0 42.666667 42.666667 0 1 0-85.333334 0Z" fill="#FFEB3B" p-id="1174"></path><path d="M597.333333 618.666667m-42.666666 0a42.666667 42.666667 0 1 0 85.333333 0 42.666667 42.666667 0 1 0-85.333333 0Z" fill="#FFEB3B" p-id="1175"></path><path d="M682.666667 618.666667m-42.666667 0a42.666667 42.666667 0 1 0 85.333333 0 42.666667 42.666667 0 1 0-85.333333 0Z" fill="#FFEB3B" p-id="1176"></path><path d="M853.333333 874.666667v-192a64 64 0 0 0-64-64H234.666667a64 64 0 0 0-64 64v192h682.666666z" fill="#FF4081" p-id="1177"></path><path d="M128 832v21.333333a42.666667 42.666667 0 0 0 42.666667 42.666667h682.666666a42.666667 42.666667 0 0 0 42.666667-42.666667v-21.333333H128z" fill="#9FA8DA" p-id="1178"></path><path d="M655.082667 667.605333l-13.504-13.504-14.912 11.925334c-98.709333 78.997333-149.781333 79.36-227.584 1.578666L384 652.522667l-15.082667 15.082666c-75.008 74.965333-124.032 77.098667-197.418666 6.762667C171.136 677.12 170.666667 679.829333 170.666667 682.666667v47.253333c73.344 56.384 138.24 50.538667 213.354666-17.749333 82.24 74.538667 154.112 73.984 254.506667-1.344 41.728 38.314667 80.277333 57.472 118.805333 57.472 31.424 0 62.848-12.864 96-38.314667V682.666667c0-2.858667-0.469333-5.568-0.832-8.32-73.386667 70.293333-122.410667 68.224-197.418666-6.741334z" fill="#FCE4EC" p-id="1179"></path></svg>